<svg width="534" height="100" viewBox="0 0 534 100" fill="none" xmlns="http://www.w3.org/2000/svg">
<path d="M0.333008 98.8701V0H27.7341V35.5932H52.8754V0H80.2766V98.8701H52.8754V60.452H27.7341V98.8701H0.333008Z" fill="white"/>
<path d="M87.6631 98.8701L108.002 0H158.002L178.341 98.8701H149.245L145.855 79.096H120.149L116.759 98.8701H87.6631ZM123.256 59.887H142.748L136.251 21.4689H129.754L123.256 59.887Z" fill="white"/>
<path d="M194.505 98.8701L178.685 0H208.346L217.245 69.4915H220.211L229.533 15.5367H247.047L256.369 69.4915H259.335L268.233 0H297.895L282.075 98.8701H246.765L238.29 51.5537L229.815 98.8701H194.505Z" fill="white"/>
<path d="M304.612 98.8701V0H332.014V36.8644H343.03L359.556 0H389.641L366.759 46.6102L391.759 98.8701H361.392L344.019 60.5932H332.014V98.8701H304.612Z" fill="white"/>
<path d="M398.351 99.9999V79.0959L408.661 78.3897V21.6101L398.351 20.9038V-0.00012207L422.362 1.12982L446.373 -0.00012207V20.9038L436.062 21.6101V78.3897L446.373 79.0959V99.9999L422.362 98.8699L398.351 99.9999Z" fill="#D1FB52"/>
<path d="M479.662 99.4349V24.2937H455.51V0.564851H531.216V24.2937H507.064V99.4349H479.662Z" fill="#D1FB52"/>
</svg>
