<svg width="328" height="360" viewBox="0 0 328 360" fill="none" xmlns="http://www.w3.org/2000/svg">
<path d="M12 152.29C12 150.752 12.1318 149.412 12.3954 148.27C12.659 147.128 13.1642 146.183 13.911 145.437C14.6579 144.646 15.6903 144.053 17.0082 143.657C18.3262 143.262 20.0395 143.064 22.1483 143.064H51.5387C53.8232 143.064 55.6024 143.372 56.8764 143.987C58.1505 144.558 59.095 145.305 59.7101 146.227C60.369 147.15 60.7644 148.182 60.8962 149.325C61.0719 150.423 61.1598 151.477 61.1598 152.488V160.264L77.6343 144.25C78.2493 143.635 78.7985 143.174 79.2817 142.867C79.765 142.515 80.2482 142.339 80.7315 142.339C81.1708 142.339 81.5442 142.449 81.8517 142.669C82.2032 142.889 82.5766 143.196 82.972 143.591L86.6623 147.479C86.9698 147.831 87.2114 148.16 87.3872 148.468C87.5629 148.731 87.6507 149.039 87.6507 149.39C87.6507 150.269 87.1236 151.126 86.0692 151.96L65.9044 167.71C72.1428 168.281 76.6897 170.082 79.5453 173.114C82.4009 176.145 83.8287 180.494 83.8287 186.161V234.596C83.8287 235.343 83.7188 235.936 83.4992 236.376C83.3235 236.771 83.0818 237.079 82.7743 237.298C82.5107 237.474 82.1812 237.584 81.7858 237.628C81.3904 237.672 80.9951 237.694 80.5997 237.694H75.0643C73.922 237.694 73.1752 237.364 72.8237 236.705C72.5162 236.046 72.3624 235.343 72.3624 234.596V185.437C72.3624 183.416 72.1647 181.746 71.7694 180.428C71.4179 179.11 70.8029 178.056 69.9242 177.265C69.0456 176.431 67.8814 175.837 66.4316 175.486C65.0258 175.091 63.2685 174.849 61.1598 174.761V227.018C61.1598 228.029 61.0719 229.149 60.8962 230.379C60.7205 231.609 60.2812 232.773 59.5783 233.871C58.8753 234.926 57.799 235.826 56.3493 236.573C54.8995 237.32 52.9006 237.694 50.3526 237.694H22.1483C20.0395 237.694 18.3262 237.496 17.0082 237.1C15.6903 236.705 14.6579 236.134 13.911 235.387C13.1642 234.64 12.659 233.696 12.3954 232.554C12.1318 231.411 12 230.071 12 228.534V152.29Z" fill="white"/>
<path d="M95.2949 179.374C95.2949 177.88 95.4267 176.562 95.6903 175.42C95.9539 174.234 96.4591 173.267 97.2059 172.521C97.9528 171.774 98.9852 171.203 100.303 170.807C101.621 170.412 103.334 170.214 105.443 170.214H134.306C136.327 170.214 137.953 170.412 139.183 170.807C140.457 171.159 141.445 171.708 142.148 172.455C142.851 173.202 143.312 174.146 143.532 175.288C143.752 176.431 143.862 177.792 143.862 179.374V228.666C143.862 230.159 143.752 231.477 143.532 232.619C143.312 233.718 142.851 234.662 142.148 235.453C141.445 236.2 140.457 236.771 139.183 237.166C137.953 237.518 136.327 237.694 134.306 237.694H105.443C103.334 237.694 101.621 237.496 100.303 237.1C98.9852 236.705 97.9528 236.134 97.2059 235.387C96.4591 234.64 95.9539 233.696 95.6903 232.554C95.4267 231.411 95.2949 230.071 95.2949 228.534V179.374ZM97.7331 142.01C97.7331 138.979 98.3042 136.123 99.4465 133.443C100.633 130.763 102.214 128.435 104.191 126.458C106.168 124.481 108.496 122.921 111.176 121.779C113.856 120.593 116.712 120 119.743 120C122.73 120 125.542 120.593 128.178 121.779C130.858 122.921 133.186 124.481 135.163 126.458C137.14 128.435 138.7 130.763 139.842 133.443C141.028 136.123 141.621 138.979 141.621 142.01C141.621 144.997 141.028 147.831 139.842 150.511C138.7 153.147 137.14 155.453 135.163 157.43C133.186 159.407 130.858 160.988 128.178 162.175C125.542 163.317 122.73 163.888 119.743 163.888C116.712 163.888 113.856 163.317 111.176 162.175C108.496 160.988 106.168 159.407 104.191 157.43C102.214 155.453 100.633 153.147 99.4465 150.511C98.3042 147.831 97.7331 144.997 97.7331 142.01Z" fill="white"/>
<path d="M156.053 179.374C156.053 177.88 156.185 176.562 156.448 175.42C156.712 174.234 157.217 173.267 157.964 172.521C158.711 171.774 159.743 171.203 161.061 170.807C162.379 170.412 164.092 170.214 166.201 170.214H193.153C195.13 170.214 196.822 170.412 198.227 170.807C199.677 171.203 200.71 171.884 201.325 172.85C201.896 172.455 202.577 172.037 203.367 171.598C204.202 171.115 205.103 170.675 206.069 170.28C207.036 169.885 208.068 169.555 209.166 169.292C210.265 169.028 211.407 168.896 212.593 168.896C216.811 168.896 220.083 170.346 222.412 173.245C224.784 176.145 225.97 180.406 225.97 186.03V234.596C225.97 235.343 225.861 235.936 225.641 236.376C225.465 236.771 225.224 237.079 224.916 237.298C224.652 237.474 224.323 237.584 223.928 237.628C223.532 237.672 223.137 237.694 222.741 237.694H218.524C217.382 237.694 216.635 237.364 216.283 236.705C215.976 236.046 215.822 235.343 215.822 234.596V185.371C215.822 182.867 215.361 180.956 214.438 179.638C213.56 178.32 212.132 177.661 210.155 177.661C209.144 177.661 208.112 177.946 207.058 178.517C206.047 179.044 205.234 179.616 204.619 180.231V228.468C204.619 230.005 204.488 231.345 204.224 232.488C203.96 233.63 203.455 234.596 202.708 235.387C201.962 236.134 200.929 236.705 199.611 237.1C198.293 237.496 196.58 237.694 194.471 237.694H166.201C164.092 237.694 162.379 237.496 161.061 237.1C159.743 236.705 158.711 236.134 157.964 235.387C157.217 234.64 156.712 233.696 156.448 232.554C156.185 231.411 156.053 230.071 156.053 228.534V179.374Z" fill="white"/>
<path d="M276.25 240C272.956 240 269.661 239.736 266.366 239.209C263.071 238.682 259.908 237.847 256.876 236.705C253.889 235.563 251.099 234.069 248.507 232.224C245.915 230.379 243.653 228.116 241.72 225.437C239.831 222.757 238.337 219.66 237.239 216.145C236.141 212.586 235.591 208.523 235.591 203.954C235.591 199.473 236.141 195.475 237.239 191.96C238.337 188.402 239.831 185.283 241.72 182.603C243.653 179.923 245.915 177.661 248.507 175.815C251.099 173.926 253.889 172.411 256.876 171.269C259.908 170.082 263.071 169.226 266.366 168.699C269.661 168.171 272.956 167.908 276.25 167.908C279.282 167.908 282.379 168.105 285.542 168.501C288.749 168.852 291.846 169.533 294.834 170.544C297.865 171.51 300.699 172.85 303.334 174.563C306.014 176.233 308.343 178.386 310.32 181.021C312.34 183.657 313.922 186.82 315.064 190.511C316.25 194.157 316.844 198.462 316.844 203.427C316.844 208.523 316.272 212.982 315.13 216.804C313.988 220.582 312.406 223.833 310.386 226.557C308.409 229.237 306.102 231.455 303.466 233.213C300.83 234.97 297.997 236.354 294.965 237.364C291.978 238.331 288.881 239.012 285.674 239.407C282.467 239.802 279.326 240 276.25 240ZM296.481 224.185C297.843 224.185 299.183 223.899 300.501 223.328C301.863 222.713 303.049 221.636 304.059 220.099C305.114 218.561 305.948 216.452 306.563 213.773C307.222 211.049 307.552 207.6 307.552 203.427C307.552 199.473 307.222 196.222 306.563 193.674C305.948 191.126 305.114 189.127 304.059 187.677C303.005 186.183 301.819 185.151 300.501 184.58C299.183 184.009 297.843 183.723 296.481 183.723C295.427 183.723 294.241 183.943 292.923 184.382C291.649 184.822 290.44 185.766 289.298 187.216C288.2 188.622 287.277 190.664 286.53 193.344C285.784 195.98 285.41 199.517 285.41 203.954C285.41 208.391 285.718 211.949 286.333 214.629C286.948 217.309 287.761 219.352 288.771 220.758C289.781 222.164 290.946 223.086 292.264 223.526C293.625 223.965 295.031 224.185 296.481 224.185Z" fill="white"/>
<path d="M300.474 210.366C303.27 210.366 305.535 208.1 305.535 205.305C305.535 202.51 303.27 200.244 300.474 200.244C297.679 200.244 295.414 202.51 295.414 205.305C295.414 208.1 297.679 210.366 300.474 210.366Z" fill="white"/>
<path d="M112.091 144.754C111.411 144.535 106.679 143.214 106.495 142.982C106.484 142.967 106.476 142.95 106.473 142.932C106.47 142.914 106.471 142.895 106.477 142.878C106.482 142.86 106.492 142.844 106.505 142.831C106.518 142.818 106.534 142.809 106.552 142.804C108.53 142.229 110.486 141.62 112.419 140.977C115.584 139.921 116.963 138.654 117.936 135.601C118.583 133.572 119.226 131.542 119.865 129.512C119.918 129.35 119.969 129.35 120.02 129.512C120.406 130.757 120.799 131.993 121.196 133.221C122.648 137.725 123.085 139.581 127.765 141.083C129.654 141.688 131.531 142.269 133.396 142.825C133.415 142.831 133.432 142.843 133.444 142.859C133.456 142.876 133.463 142.895 133.463 142.916C133.463 142.936 133.456 142.956 133.444 142.972C133.432 142.988 133.415 143 133.396 143.006C131.764 143.505 130.138 144.01 128.518 144.522C125.133 145.586 123.063 146.591 122.041 149.876C121.174 152.664 120.506 154.792 120.036 156.26C119.986 156.422 119.931 156.423 119.874 156.263C119.248 154.476 118.682 152.687 118.174 150.895C117.166 147.334 115.657 145.897 112.091 144.754Z" fill="#151515"/>
</svg>
