<svg width="128" height="24" viewBox="0 0 128 24" fill="none" xmlns="http://www.w3.org/2000/svg">
<path d="M0 23.7288V0H6.57627V8.54237H12.6102V0H19.1864V23.7288H12.6102V14.5085H6.57627V23.7288H0Z" fill="white"/>
<path d="M20.9592 23.7288L25.8406 0H37.8406L42.722 23.7288H35.7389L34.9253 18.9831H28.7558L27.9423 23.7288H20.9592ZM29.5016 14.3729H34.1796L32.6202 5.15254H31.0609L29.5016 14.3729Z" fill="white"/>
<path d="M46.6012 23.7288L42.8046 0H49.9232L52.0588 16.678H52.7707L55.008 3.72881H59.2114L61.4487 16.678H62.1605L64.2961 0H71.4148L67.6181 23.7288H59.1436L57.1097 12.3729L55.0758 23.7288H46.6012Z" fill="white"/>
<path d="M73.027 23.7288V0H79.6033V8.84746H82.2474L86.2135 0H93.4338L87.9423 11.1864L93.9423 23.7288H86.6542L82.4847 14.5424H79.6033V23.7288H73.027Z" fill="white"/>
<path d="M95.5244 24V18.983L97.999 18.8136V5.18644L95.5244 5.01695V0L101.287 0.271187L107.05 0V5.01695L104.575 5.18644V18.8136L107.05 18.983V24L101.287 23.7288L95.5244 24Z" fill="#D1FB52"/>
<path d="M115.039 23.8644V5.83051H109.243V0.135593H127.412V5.83051H121.616V23.8644H115.039Z" fill="#D1FB52"/>
</svg>
